<svg width="114" height="64" viewBox="0 0 114 64" fill="none" xmlns="http://www.w3.org/2000/svg">
<path d="M106.586 60.7023H46.1915H20.2361C15.7866 60.7023 11.8414 59.2472 8.47465 56.3462C6.22765 54.4085 4.40707 52.12 3.27245 49.3378C2.64855 47.8045 2.26701 46.1833 2.14154 44.5324C2.0507 43.3873 1.99323 42.2365 2.00064 41.0895C2.03695 39.2908 2.43218 37.5175 3.16307 35.874C4.73523 32.1619 7.15464 29.131 10.5307 26.8981C11.5768 26.1924 12.7364 25.6719 13.9586 25.3595C13.9839 25.3577 14.0085 25.3507 14.031 25.339C14.0534 25.3273 14.0733 25.3112 14.0892 25.2915C14.1052 25.2719 14.117 25.2492 14.1239 25.2248C14.1307 25.2004 14.1326 25.1748 14.1292 25.1497C14.262 22.8401 15.0003 20.6063 16.2696 18.6732C17.5389 16.74 19.2945 15.1757 21.3596 14.1378C22.7723 13.4529 24.2258 12.9369 25.7906 12.7736C27.7979 12.5751 29.8229 12.8833 31.6806 13.6701C32.626 14.061 33.5328 14.5394 34.3892 15.0992L34.6321 15.2551L34.7767 15.0064C35.4052 13.9058 35.9577 12.755 36.6807 11.7212C37.4695 10.6088 38.3369 9.55431 39.2762 8.56594C39.9715 7.82352 40.8187 7.22402 41.5807 6.54099C44.3246 4.07987 47.5949 2.66556 51.1063 1.7394C53.3366 1.15517 55.6429 0.914833 57.9456 1.02667C63.5074 1.28095 68.4612 3.16855 72.7587 6.70433C76.7872 9.9723 79.6594 14.4504 80.9513 19.4776C81.4579 21.2709 81.7192 23.1247 81.7281 24.9883C81.7281 25.4838 81.7003 25.9812 81.6947 26.4731C81.6966 26.5846 81.7116 26.6955 81.7392 26.8035C81.8245 27.1747 81.9561 27.2953 82.3288 27.3603C84.5785 27.7254 86.7383 28.5152 88.6934 29.6878C90.97 31.0088 92.8609 32.9044 94.1774 35.1854C94.7336 36.158 95.1266 37.227 95.5512 38.2646C95.8923 39.0979 96.1686 39.9591 96.4893 40.863L91.9137 41.0041C91.6857 40.1856 91.5096 39.3801 91.2407 38.6079C89.9856 35.0072 87.4698 32.6927 83.8824 31.5067C82.0317 30.9095 80.0913 30.6395 78.1481 30.7086C77.9627 30.7086 77.7773 30.7327 77.5919 30.7457C77.5919 30.3986 77.5678 30.0646 77.5919 29.7379C77.6772 28.8303 77.7773 27.9245 77.8849 27.0188C78.0293 25.76 77.995 24.4871 77.7829 23.238C77.4503 20.9923 76.7894 18.8078 75.8214 16.7548C73.6375 12.265 70.2595 8.98355 65.773 6.82682C64.325 6.1308 62.8326 5.55914 61.2438 5.2993C60.4193 5.15478 59.5864 5.06364 58.7502 5.02646C57.3375 4.9782 55.9192 4.95778 54.5065 5.00418C52.4716 5.08511 50.4742 5.57823 48.635 6.45376C43.3346 8.91117 39.5618 12.8664 37.2777 18.2378C36.8643 19.2104 36.5528 20.2275 36.1931 21.2223C36.1616 21.3114 36.1264 21.3987 36.0726 21.5379C35.7797 21.2724 35.4998 21.0442 35.2495 20.7843C34.7359 20.2498 34.2761 19.6614 33.7292 19.164C32.1861 17.717 30.203 16.8296 28.0969 16.6435C24.5744 16.3391 21.7508 17.6847 19.6225 20.4948C18.8586 21.5026 18.2617 22.6088 18.0781 23.8783C17.9613 24.6894 17.9261 25.5154 17.8835 26.3357C17.8538 26.8926 17.8835 27.4494 17.8835 28.0155C17.4107 28.1305 16.9565 28.2326 16.493 28.357C12.9983 29.3017 10.2934 31.3267 8.31521 34.3502C7.076 36.1896 6.26039 38.2816 5.92732 40.4751C5.37113 44.358 6.32778 47.864 8.69157 50.9711C10.59 53.4656 12.9983 55.2771 16.0091 56.2348C17.1051 56.5826 18.2484 56.7579 19.3982 56.7545H106.56L106.56 56.7471L106.566 56.7545H106.56L106.586 60.7023Z" fill="#1D4354"/>
<path d="M106.563 63.0851V54.3617L112.866 58.7234L106.563 63.0851Z" fill="#37A000"/>
<path d="M31.4428 47.7856C31.5694 48.4448 31.9087 49.0441 32.4087 49.4914C32.9994 50.0204 33.753 50.3314 34.5445 50.373C35.0396 50.4053 35.5367 50.3854 36.0277 50.3136C36.7217 50.1948 37.3503 49.8314 37.8 49.289C37.8494 49.2309 37.9117 49.1852 37.9818 49.1556C38.052 49.1259 38.1282 49.1132 38.2042 49.1183C39.1608 49.1183 40.1175 49.1183 41.0723 49.1183H41.3578C41.2632 49.3447 41.1965 49.5396 41.1056 49.7215C40.2176 51.507 38.7474 52.5538 36.8545 53.0457C33.8752 53.8178 30.6289 52.5445 29.0494 49.9962C26.5762 46.0094 28.9011 40.6027 33.4989 39.7007C35.9387 39.2218 38.1059 39.7991 39.8487 41.6421C40.835 42.6852 41.367 43.9585 41.5747 45.3728C41.6828 46.094 41.7014 46.8259 41.6303 47.5518C41.6118 47.7374 41.5413 47.7931 41.3541 47.7931C38.1591 47.7931 34.9647 47.7931 31.771 47.7931L31.4428 47.7856ZM38.5954 45.0498C38.603 45.03 38.6086 45.0095 38.6121 44.9886C38.6111 44.9592 38.6074 44.93 38.6009 44.9013C38.3062 43.8619 37.6944 43.0991 36.671 42.7001C35.9384 42.4332 35.1535 42.3423 34.3795 42.4347C33.6822 42.5009 33.0207 42.7745 32.4801 43.2204C31.9395 43.6664 31.5447 44.2641 31.3464 44.9366C31.3422 44.9742 31.3422 45.0122 31.3464 45.0498H38.5954Z" fill="#37A000"/>
<path d="M61.9881 52.9339H58.918V35.5223H61.9807V40.7433C62.0808 40.6709 62.1439 40.632 62.2032 40.5837C62.9934 39.9474 63.9703 39.5882 64.9841 39.561C65.8434 39.4994 66.7062 39.613 67.5203 39.8951C68.9052 40.4204 69.708 41.4635 70.1288 42.8425C70.3623 43.6399 70.4785 44.4671 70.4737 45.2981C70.4885 47.7982 70.4737 50.2983 70.4737 52.7984C70.4737 52.8355 70.4737 52.8726 70.4737 52.9283H67.3479V52.6666C67.3479 50.4195 67.3479 48.1718 67.3479 45.9236C67.3592 45.278 67.2717 44.6346 67.0883 44.0155C66.7583 42.9669 66.102 42.4472 65.0026 42.4101C64.6331 42.3969 64.2635 42.4325 63.9033 42.5159C62.8966 42.7534 62.3941 43.4903 62.1846 44.4369C62.0665 44.9715 62.0043 45.5171 61.9992 46.0646C61.9788 48.2603 61.99 50.456 61.99 52.6517L61.9881 52.9339Z" fill="#37A000"/>
<path d="M56.6483 44.2239H55.4061C54.7164 44.2239 54.0286 44.2239 53.339 44.2239C53.2778 44.2305 53.2162 44.2175 53.1629 44.1868C53.1096 44.1561 53.0674 44.1093 53.0423 44.0532C52.3007 42.7539 51.0197 42.2936 49.6533 42.4217C47.7993 42.5925 46.4404 44.055 46.3273 46.0391C46.242 47.524 46.6851 48.8065 47.9254 49.6955C49.0526 50.5029 50.304 50.6236 51.5925 50.1039C52.2136 49.8477 52.6493 49.3615 53.0405 48.8214C53.0995 48.7436 53.1867 48.6922 53.2833 48.6784C54.3586 48.6692 55.4321 48.6784 56.5074 48.6784C56.5444 48.6784 56.5797 48.6784 56.6186 48.6896C55.9067 50.8927 53.6912 53.4429 49.7886 53.2536C46.3866 53.0903 43.4722 50.4899 43.2182 46.9245C42.9531 43.2328 45.4244 40.2427 48.7912 39.6673C52.5937 39.014 55.6582 41.1614 56.6483 44.2239Z" fill="#37A000"/>
<path d="M54.5564 16.2516C54.0355 16.0567 53.5405 15.8358 53.0232 15.6948C51.3046 15.1955 49.7695 15.5556 48.405 16.7174C47.3923 17.5817 46.5929 18.6685 46.069 19.8931C46.0533 19.9534 46.0146 20.005 45.9612 20.037C45.9078 20.0689 45.844 20.0786 45.7835 20.0639C45.06 19.9843 44.328 20.034 43.6218 20.2105C42.1386 20.5539 41.2117 21.5098 40.6555 22.8702C40.4866 23.3437 40.3661 23.8331 40.2958 24.331C40.2254 24.7189 40.1827 24.7783 39.8027 24.7022L38.8497 24.537C38.7902 24.053 38.8351 23.5618 38.9814 23.0967C39.2637 21.8903 39.9211 20.8048 40.859 19.9963C41.7968 19.1878 42.9667 18.6981 44.2002 18.5976C44.4209 18.5772 44.6415 18.5494 44.864 18.5438C44.929 18.544 44.9926 18.5252 45.047 18.4895C45.1013 18.4539 45.1441 18.4031 45.1699 18.3433C45.9448 17.0255 46.894 15.8674 48.1937 15.021C49.7881 13.9835 51.5011 13.7663 53.3236 14.2006C53.5089 14.2433 53.674 14.3139 53.8593 14.3862C54.0447 14.1078 54.2134 13.8294 54.4063 13.5547C55.5613 11.9511 57.0018 10.6927 58.9188 10.1173C61.5143 9.3415 63.8855 9.90389 65.999 11.5576C67.0495 12.3547 67.8906 13.3955 68.45 14.5904C68.6743 15.0823 68.9023 15.5704 69.1526 16.0511C69.2295 16.1437 69.3342 16.2088 69.4511 16.2367C69.8479 16.3796 70.2631 16.4762 70.6469 16.6469C72.7548 17.5749 73.984 19.212 74.3548 21.4726C74.6226 22.9537 74.3558 24.4819 73.6021 25.7842C72.7326 27.3006 71.4293 28.1971 69.7403 28.559C68.6928 28.7855 67.6491 28.7057 66.609 28.5126C66.5206 28.4912 66.4333 28.4651 66.3476 28.4347C66.4644 27.9521 66.5756 27.4881 66.6906 27.0185C67.0521 27.0723 67.3839 27.1354 67.7195 27.1688C68.8467 27.2802 69.9331 27.141 70.9027 26.5229C72.2005 25.6989 72.8216 24.4646 72.9421 22.9593C73.0504 21.8122 72.7596 20.6629 72.1189 19.7057C71.3551 18.5531 70.2279 17.9684 68.9468 17.6139C68.7112 17.5512 68.4705 17.5096 68.2275 17.4896C68.1738 17.4928 68.1208 17.4754 68.0795 17.4409C68.0382 17.4064 68.0115 17.3574 68.005 17.304C67.6165 15.8737 66.8933 14.5567 65.8952 13.4619C65.2743 12.7587 64.5096 12.1973 63.653 11.8159C62.7964 11.4345 61.8678 11.242 60.9303 11.2514C59.6808 11.2514 58.5591 11.7247 57.5394 12.4281C56.1842 13.3561 55.3147 14.6888 54.6102 16.1402C54.5935 16.1736 54.5805 16.2089 54.5638 16.2423C54.5472 16.2757 54.5601 16.2479 54.5564 16.2516Z" fill="#1D4354"/>
<path d="M28.0507 38.5721C27.0867 38.5721 26.1541 38.5721 25.2216 38.5721C24.7841 38.5721 24.8193 38.5053 24.8193 38.9786V52.9342H21.6676V38.9118C21.6676 38.5721 21.6676 38.5721 21.3357 38.5721H18.4324C18.4324 38.4775 18.4194 38.4051 18.4194 38.3327C18.4194 37.4733 18.4194 36.6121 18.4194 35.7528C18.4194 35.5672 18.4602 35.4948 18.6642 35.4966C21.7158 35.4966 24.7686 35.4966 27.8227 35.4966C28.0081 35.4966 28.0785 35.5468 28.0767 35.7454C28.0656 36.6066 28.0767 37.4659 28.0767 38.3271C28.0656 38.3995 28.0581 38.4719 28.0507 38.5721Z" fill="#37A000"/>
<path d="M110.754 45.5692V42.3063H112.595V52.6686H110.913V51.6812C110.837 51.7443 110.802 51.7665 110.774 51.7962C109.426 53.3201 107.153 53.0472 105.919 52.0227C105.449 51.6434 105.071 51.1624 104.814 50.6158C104.558 50.0692 104.428 49.4714 104.435 48.8674C104.411 47.4197 104.934 46.2132 106.104 45.3409C106.687 44.9129 107.381 44.6647 108.103 44.6268C108.825 44.5889 109.542 44.7629 110.166 45.1275C110.361 45.2537 110.535 45.404 110.754 45.5692ZM106.273 48.7022C106.295 48.8878 106.306 49.0734 106.341 49.259C106.401 49.5961 106.535 49.9157 106.734 50.1947C106.932 50.4736 107.19 50.705 107.488 50.8721C107.787 51.0392 108.119 51.1379 108.46 51.161C108.801 51.184 109.143 51.131 109.461 51.0056C110.409 50.6195 110.971 49.6302 110.883 48.4962C110.842 47.92 110.589 47.3796 110.173 46.9793C109.757 46.5789 109.208 46.347 108.631 46.3283C107.313 46.2986 106.286 47.3417 106.273 48.7022Z" fill="#1D4354"/>
<path d="M82.3667 45.2553C81.6771 45.2553 81.0115 45.2553 80.3459 45.2553C80.3096 45.2516 80.2743 45.2405 80.2425 45.2226C80.2106 45.2047 80.1827 45.1805 80.1605 45.1514C79.1853 43.9709 77.9172 43.7259 76.5249 44.1083C75.1326 44.4906 74.3521 45.4892 74.1037 46.8923C73.6495 49.4425 76.1578 51.6642 78.5847 50.8736C79.1213 50.6753 79.6062 50.3581 80.0029 49.9455C80.0919 49.8649 80.2057 49.8171 80.3255 49.81C80.9336 49.797 81.5417 49.81 82.1498 49.81C82.2129 49.81 82.2778 49.81 82.3463 49.81C81.7234 51.4805 79.7508 53.0303 77.209 52.8465C75.8861 52.7642 74.6394 52.198 73.7062 51.2555C72.7731 50.3131 72.2184 49.0601 72.1477 47.735C72.0787 46.4436 72.4812 45.1711 73.2801 44.1549C74.0789 43.1386 75.2197 42.4478 76.4897 42.2114C77.6693 41.9695 78.8961 42.1397 79.9655 42.6936C81.035 43.2475 81.8825 44.1516 82.3667 45.2553Z" fill="#1D4354"/>
<path d="M16.5003 52.9869H13.3486C13.3486 52.8941 13.3301 52.8013 13.3301 52.7233C13.3301 48.64 13.3301 44.5567 13.3301 40.4734C13.3301 40.2525 13.3801 40.1839 13.6119 40.1876C14.4925 40.2043 15.375 40.1876 16.2556 40.1876H16.5115L16.5003 52.9869Z" fill="#1D4354"/>
<path d="M94.9981 48.8516C94.9981 51.0454 93.1182 52.8625 90.8546 52.8606C90.0524 52.8444 89.273 52.5908 88.6147 52.1316C87.9564 51.6725 87.4486 51.0285 87.1554 50.2808C86.8622 49.5332 86.7968 48.7153 86.9673 47.9305C87.1379 47.1456 87.5368 46.4289 88.1137 45.8707C88.6906 45.3125 89.4197 44.9379 90.209 44.794C90.9984 44.6502 91.8126 44.7435 92.549 45.0624C93.2854 45.3812 93.911 45.9113 94.3468 46.5856C94.7827 47.26 95.0093 48.0484 94.9981 48.8516ZM93.1535 48.7977C93.1331 48.6381 93.1275 48.4729 93.0923 48.3152C92.8828 47.4038 92.3507 46.7654 91.446 46.5092C90.5412 46.2531 89.7904 46.5296 89.1823 47.2145C88.7984 47.6542 88.5869 48.2184 88.5869 48.8024C88.5869 49.3864 88.7984 49.9505 89.1823 50.3902C89.4033 50.662 89.6887 50.8741 90.0125 51.0073C90.3363 51.1405 90.6882 51.1906 91.0362 51.1531C91.6203 51.099 92.1626 50.8265 92.555 50.39C92.9474 49.9535 93.1611 49.3849 93.1535 48.7977Z" fill="#1D4354"/>
<path d="M103.09 52.6692H101.404V51.9268C101.295 52.0215 101.234 52.0716 101.178 52.1254C100.168 53.1035 98.5252 52.9736 97.7021 52.5504C96.8789 52.1273 96.5267 51.4257 96.3505 50.5904C96.2647 50.185 96.2176 49.7724 96.2096 49.358C96.193 47.9344 96.2004 46.5108 96.2004 45.0891C96.2004 45.039 96.2004 44.9889 96.2134 44.9258H98.0414V45.2153C98.0414 46.5795 98.0414 47.9437 98.071 49.3079C98.0801 49.5967 98.1236 49.8833 98.2008 50.1617C98.3973 50.9171 98.8942 51.2475 99.6728 51.1658C100.678 51.0619 101.206 50.4791 101.23 49.3822C101.258 47.9957 101.252 46.6092 101.262 45.2209C101.262 45.1262 101.262 45.0353 101.262 44.9239H103.09V52.6692Z" fill="#1D4354"/>
<path d="M83.5898 42.3087H85.4179V52.6691H83.5898V42.3087Z" fill="#1D4354"/>
<path d="M16.5488 35.5263C16.5488 35.6135 16.5599 35.6859 16.5599 35.7583C16.5599 36.6176 16.5599 37.4788 16.5599 38.3363C16.5599 38.5349 16.5024 38.5869 16.3077 38.585C15.3326 38.5739 14.3555 38.585 13.3618 38.585V35.5263H16.5488Z" fill="#1D4354"/>
</svg>
